<svg width="128" height="128" viewBox="0 0 128 128" fill="none" xmlns="http://www.w3.org/2000/svg">
<path d="M48 108V112L54.81 122.22C55.1758 122.768 55.6711 123.217 56.2519 123.527C56.8328 123.838 57.4813 124 58.14 124H69.86C71.2 124 72.45 123.33 73.19 122.22L80 112V108H48Z" fill="url(#paint0_radial)"/>
<path d="M48 86.5H80V112H48V86.5Z" fill="url(#paint1_linear)"/>
<path opacity="0.2" d="M77 89.5V111.09L70.69 120.55C70.5 120.83 70.19 121 69.86 121H58.14C57.8 121 57.49 120.83 57.31 120.55L51 111.09V89.5H77ZM80 86.5H48V112L54.81 122.22C55.1758 122.768 55.6711 123.217 56.2519 123.527C56.8328 123.838 57.4813 124 58.14 124H69.86C71.2 124 72.45 123.33 73.19 122.22L80 112V86.5Z" fill="#424242"/>
<path d="M79.79 96L48.91 102.24C47.8 102.47 46.7 101.74 46.47 100.62L46.35 100C46.12 98.89 46.85 97.79 47.97 97.56L78.85 91.32C79.96 91.09 81.06 91.82 81.29 92.94L81.41 93.56C81.63 94.68 80.91 95.78 79.79 96Z" fill="#BBDEFB"/>
<path d="M79.79 105.72L48.91 111.96C47.8 112.19 46.7 111.46 46.47 110.34L46.35 109.72C46.12 108.61 46.85 107.51 47.97 107.28L78.85 101.04C79.96 100.81 81.06 101.54 81.29 102.66L81.41 103.28C81.63 104.4 80.91 105.5 79.79 105.72Z" fill="#90CAF9"/>
<path d="M100 40C100 20.12 83.88 4 64 4C44.12 4 28 20.12 28 40C28 48.76 31.37 56.58 36.32 63.02C40.87 68.94 43.38 75.16 42.83 79.67C41.5 90.56 48.08 92 48.08 92H79.92C79.92 92 86.5 90.56 85.17 79.67C84.62 75.16 87.13 68.94 91.68 63.02C96.63 56.58 100 48.76 100 40Z" fill="url(#paint2_radial)"/>
<path d="M69.78 94.04H69.65C69.4537 94.0236 69.2625 93.9687 69.0874 93.8784C68.9122 93.7881 68.7566 93.6642 68.6294 93.5138C68.5022 93.3634 68.4059 93.1893 68.3459 93.0017C68.2859 92.814 68.2636 92.6163 68.28 92.42L68.77 86.57C70.37 74.27 74.79 59.59 77.42 51.76C75.94 51.08 74.4 49.83 73.23 48.28C72.45 47.24 71.89 46.16 71.57 45.07C69 44.88 66.78 44 65.01 42.77C63.34 44.27 60.95 45.53 57.55 45.86C56.7 45.94 55.9 45.98 55.15 45.96C54.59 47.34 53.83 48.86 52.8 50.55C52.2012 51.544 51.3301 52.3456 50.29 52.86L61.6 91.17C61.83 91.96 61.38 92.8 60.59 93.03C59.8 93.26 58.96 92.81 58.73 92.02L47.37 53.57C47.11 53.58 46.83 53.58 46.56 53.56C43.32 53.38 40.05 51.48 38.96 49.13C38.29 47.69 38.45 46.2 39.4 44.95C40.16 43.94 41.29 43.3 42.58 43.12C43.89 42.95 45.24 43.3 46.27 44.09C48.52 45.83 49.12 48.59 49.23 49.25L49.42 49.9C49.73 49.67 50.01 49.38 50.24 49C50.83 48.03 51.5 46.82 52.07 45.54C50.54 45.11 49.32 44.37 48.43 43.3C47 41.59 46.71 39.12 47.66 36.85C48.08 35.86 49.13 34.58 50.74 34.26C52.03 34 53.35 34.46 54.45 35.54C55.83 36.9 56.91 39.18 56.1 42.95C56.47 42.94 56.86 42.91 57.26 42.87C59.71 42.63 61.48 41.8 62.75 40.76C61.89 39.79 61.25 38.76 60.84 37.75C59.85 35.29 60.16 32.89 61.68 31.33C62.93 30.04 64.12 29.88 64.89 29.97C66.44 30.15 67.39 31.38 67.82 32.1C68.64 33.47 68.94 35.87 68.47 37.34C68.22 38.12 67.77 39.27 66.97 40.47C68.17 41.24 69.62 41.81 71.28 42C71.34 41.47 71.46 40.95 71.63 40.43C72.98 36.52 75.24 35.52 76.47 35.28C77.85 35 79.25 35.38 80.02 36.25C80.94 37.28 81.43 39.44 80.51 41.4C79.84 42.85 78.28 44.5 74.72 44.96C74.99 45.57 75.33 46.08 75.61 46.45C76.5 47.63 77.55 48.43 78.38 48.88C78.65 48.12 78.87 47.51 79.04 47.05C80.67 42.76 83.9 40.88 86.25 41.25C87.68 41.47 89.26 42.62 89.41 45.2C89.49 46.62 89.02 47.94 88.05 49.03C85.88 51.46 81.92 52.09 80.38 52.25C77.82 59.82 73.32 74.6 71.72 86.87L71.23 92.65C71.2 93.45 70.55 94.04 69.78 94.04V94.04ZM43.25 46.07C43.16 46.07 43.07 46.08 42.98 46.09C42.49 46.16 42.07 46.39 41.8 46.75C41.52 47.12 41.49 47.44 41.69 47.86C42.23 49.01 44.25 50.33 46.48 50.54L46.32 50C46.3 49.92 46.28 49.85 46.27 49.77C46.27 49.76 45.95 47.63 44.43 46.46C44.1 46.21 43.68 46.07 43.25 46.07ZM85.66 44.22C84.64 44.22 82.87 45.5 81.87 48.13C81.77 48.39 81.66 48.7 81.53 49.06C83.12 48.73 84.91 48.08 85.85 47.04C86.3 46.54 86.49 46.02 86.45 45.39C86.41 44.68 86.2 44.29 85.83 44.24C85.77 44.23 85.72 44.22 85.66 44.22V44.22ZM51.45 37.19C51.41 37.19 51.37 37.19 51.33 37.2C50.95 37.28 50.57 37.68 50.43 38.01C49.91 39.24 50.03 40.53 50.74 41.37C51.26 41.99 52.05 42.44 53.09 42.69C53.59 40.73 53.55 38.86 52.35 37.68C52.01 37.35 51.71 37.19 51.45 37.19V37.19ZM77.4 38.21C77.26 38.21 77.08 38.23 76.88 38.3C75.92 38.61 75.07 39.73 74.48 41.44C74.4114 41.6246 74.3612 41.8155 74.33 42.01C76.11 41.79 77.31 41.18 77.79 40.22C78.25 39.32 77.93 38.43 77.81 38.27C77.78 38.26 77.63 38.21 77.4 38.21V38.21ZM64.52 32.96C64.43 32.96 64.18 33.06 63.82 33.43C62.86 34.42 63.35 36 63.61 36.64C63.86 37.25 64.23 37.87 64.7 38.47C65.13 37.75 65.41 37.05 65.6 36.46C65.81 35.79 65.62 34.3 65.23 33.66C64.96 33.21 64.66 32.98 64.53 32.97C64.53 32.96 64.53 32.96 64.52 32.96V32.96Z" fill="#FFD54F"/>
<path d="M69.78 94.04H69.65C69.4537 94.0236 69.2625 93.9687 69.0874 93.8784C68.9122 93.7881 68.7566 93.6642 68.6294 93.5138C68.5022 93.3634 68.4059 93.1893 68.3459 93.0017C68.2859 92.814 68.2636 92.6163 68.28 92.42L68.77 86.57C70.37 74.27 74.79 59.59 77.42 51.76C75.94 51.08 74.4 49.83 73.23 48.28C72.45 47.24 71.89 46.16 71.57 45.07C69 44.88 66.78 44 65.01 42.77C63.34 44.27 60.95 45.53 57.55 45.86C56.7 45.94 55.9 45.98 55.15 45.96C54.59 47.34 53.83 48.86 52.8 50.55C52.2012 51.544 51.3301 52.3456 50.29 52.86L61.6 91.17C61.83 91.96 61.38 92.8 60.59 93.03C59.8 93.26 58.96 92.81 58.73 92.02L47.37 53.57C47.11 53.58 46.83 53.58 46.56 53.56C43.32 53.38 40.05 51.48 38.96 49.13C38.29 47.69 38.45 46.2 39.4 44.95C40.16 43.94 41.29 43.3 42.58 43.12C43.89 42.95 45.24 43.3 46.27 44.09C48.52 45.83 49.12 48.59 49.23 49.25L49.42 49.9C49.73 49.67 50.01 49.38 50.24 49C50.83 48.03 51.5 46.82 52.07 45.54C50.54 45.11 49.32 44.37 48.43 43.3C47 41.59 46.71 39.12 47.66 36.85C48.08 35.86 49.13 34.58 50.74 34.26C52.03 34 53.35 34.46 54.45 35.54C55.83 36.9 56.91 39.18 56.1 42.95C56.47 42.94 56.86 42.91 57.26 42.87C59.71 42.63 61.48 41.8 62.75 40.76C61.89 39.79 61.25 38.76 60.84 37.75C59.85 35.29 60.16 32.89 61.68 31.33C62.93 30.04 64.12 29.88 64.89 29.97C66.44 30.15 67.39 31.38 67.82 32.1C68.64 33.47 68.94 35.87 68.47 37.34C68.22 38.12 67.77 39.27 66.97 40.47C68.17 41.24 69.62 41.81 71.28 42C71.34 41.47 71.46 40.95 71.63 40.43C72.98 36.52 75.24 35.52 76.47 35.28C77.85 35 79.25 35.38 80.02 36.25C80.94 37.28 81.43 39.44 80.51 41.4C79.84 42.85 78.28 44.5 74.72 44.96C74.99 45.57 75.33 46.08 75.61 46.45C76.5 47.63 77.55 48.43 78.38 48.88C78.65 48.12 78.87 47.51 79.04 47.05C80.67 42.76 83.9 40.88 86.25 41.25C87.68 41.47 89.26 42.62 89.41 45.2C89.49 46.62 89.02 47.94 88.05 49.03C85.88 51.46 81.92 52.09 80.38 52.25C77.82 59.82 73.32 74.6 71.72 86.87L71.23 92.65C71.2 93.45 70.55 94.04 69.78 94.04V94.04ZM43.25 46.07C43.16 46.07 43.07 46.08 42.98 46.09C42.49 46.16 42.07 46.39 41.8 46.75C41.52 47.12 41.49 47.44 41.69 47.86C42.23 49.01 44.25 50.33 46.48 50.54L46.32 50C46.3 49.92 46.28 49.85 46.27 49.77C46.27 49.76 45.95 47.63 44.43 46.46C44.1 46.21 43.68 46.07 43.25 46.07ZM85.66 44.22C84.64 44.22 82.87 45.5 81.87 48.13C81.77 48.39 81.66 48.7 81.53 49.06C83.12 48.73 84.91 48.08 85.85 47.04C86.3 46.54 86.49 46.02 86.45 45.39C86.41 44.68 86.2 44.29 85.83 44.24C85.77 44.23 85.72 44.22 85.66 44.22V44.22ZM51.45 37.19C51.41 37.19 51.37 37.19 51.33 37.2C50.95 37.28 50.57 37.68 50.43 38.01C49.91 39.24 50.03 40.53 50.74 41.37C51.26 41.99 52.05 42.44 53.09 42.69C53.59 40.73 53.55 38.86 52.35 37.68C52.01 37.35 51.71 37.19 51.45 37.19V37.19ZM77.4 38.21C77.26 38.21 77.08 38.23 76.88 38.3C75.92 38.61 75.07 39.73 74.48 41.44C74.4114 41.6246 74.3612 41.8155 74.33 42.01C76.11 41.79 77.31 41.18 77.79 40.22C78.25 39.32 77.93 38.43 77.81 38.27C77.78 38.26 77.63 38.21 77.4 38.21V38.21ZM64.52 32.96C64.43 32.96 64.18 33.06 63.82 33.43C62.86 34.42 63.35 36 63.61 36.64C63.86 37.25 64.23 37.87 64.7 38.47C65.13 37.75 65.41 37.05 65.6 36.46C65.81 35.79 65.62 34.3 65.23 33.66C64.96 33.21 64.66 32.98 64.53 32.97C64.53 32.96 64.53 32.96 64.52 32.96V32.96Z" fill="#FDD835"/>
<path opacity="0.2" d="M64.53 29.96C64.66 29.96 64.77 29.97 64.89 29.98C66.44 30.16 67.39 31.39 67.82 32.11C68.64 33.48 68.94 35.88 68.47 37.35C68.22 38.13 67.77 39.28 66.97 40.48C68.17 41.25 69.62 41.82 71.28 42.01C71.34 41.48 71.46 40.96 71.63 40.44C72.98 36.53 75.24 35.53 76.47 35.29C76.77 35.23 77.07 35.2 77.37 35.2C78.43 35.2 79.42 35.58 80.02 36.26C80.94 37.29 81.43 39.45 80.51 41.41C79.84 42.86 78.28 44.51 74.72 44.97C74.99 45.58 75.33 46.09 75.61 46.46C76.5 47.64 77.55 48.44 78.38 48.89C78.65 48.13 78.87 47.52 79.04 47.06C80.53 43.12 83.38 41.21 85.66 41.21C85.86 41.21 86.06 41.22 86.25 41.25C87.68 41.47 89.26 42.62 89.41 45.2C89.49 46.62 89.02 47.94 88.05 49.03C85.88 51.46 81.92 52.09 80.38 52.25C77.82 59.82 73.32 74.6 71.72 86.87L71.23 92.65C71.1976 93.0232 71.0267 93.3707 70.7509 93.6242C70.4752 93.8777 70.1146 94.0189 69.74 94.02H69.61C69.4137 94.0036 69.2225 93.9487 69.0474 93.8584C68.8723 93.7681 68.7167 93.6442 68.5894 93.4938C68.4622 93.3434 68.3659 93.1693 68.3059 92.9817C68.246 92.794 68.2236 92.5963 68.24 92.4L68.73 86.55C70.33 74.25 74.75 59.57 77.38 51.74C75.9 51.06 74.36 49.81 73.19 48.26C72.41 47.22 71.85 46.14 71.53 45.05C69 44.88 66.78 44 65.01 42.77C63.34 44.27 60.95 45.53 57.55 45.86C56.85 45.93 56.19 45.96 55.56 45.96H55.15C54.59 47.34 53.83 48.86 52.8 50.55C52.2012 51.544 51.3302 52.3456 50.29 52.86L61.6 91.17C61.83 91.96 61.38 92.8 60.59 93.03C60.45 93.07 60.31 93.09 60.16 93.09C59.51 93.09 58.91 92.67 58.72 92.01L47.37 53.57C47.26 53.57 47.15 53.58 47.04 53.58C46.88 53.58 46.72 53.58 46.55 53.57C43.31 53.39 40.04 51.49 38.95 49.14C38.28 47.7 38.44 46.21 39.39 44.96C40.15 43.95 41.28 43.31 42.57 43.13C42.79 43.1 43.01 43.09 43.23 43.09C44.32 43.09 45.4 43.45 46.26 44.11C48.51 45.85 49.11 48.61 49.22 49.27L49.41 49.92C49.72 49.69 50 49.4 50.23 49.02C50.82 48.05 51.49 46.84 52.06 45.56C50.53 45.13 49.31 44.39 48.42 43.32C46.99 41.61 46.7 39.14 47.65 36.87C48.07 35.88 49.12 34.6 50.73 34.28C50.97 34.23 51.2 34.21 51.44 34.21C52.5 34.21 53.54 34.68 54.44 35.56C55.82 36.92 56.9 39.2 56.09 42.97C56.46 42.96 56.85 42.93 57.25 42.89C59.7 42.65 61.47 41.82 62.74 40.78C61.88 39.81 61.24 38.78 60.83 37.77C59.84 35.31 60.15 32.91 61.67 31.35C62.74 30.23 63.77 29.96 64.53 29.96V29.96ZM64.71 38.47C65.14 37.75 65.42 37.05 65.61 36.46C65.82 35.79 65.63 34.3 65.24 33.66C64.97 33.21 64.67 32.98 64.54 32.97H64.53C64.44 32.97 64.19 33.07 63.83 33.44C62.87 34.43 63.36 36.01 63.62 36.65C63.86 37.24 64.23 37.87 64.71 38.47V38.47ZM53.09 42.69C53.59 40.73 53.55 38.86 52.35 37.68C52.02 37.35 51.72 37.19 51.45 37.19C51.41 37.19 51.37 37.19 51.33 37.2C50.95 37.28 50.57 37.68 50.43 38.01C49.91 39.24 50.03 40.53 50.74 41.37C51.26 41.99 52.05 42.44 53.09 42.69V42.69ZM74.32 42.01C76.1 41.79 77.3 41.18 77.78 40.22C78.24 39.32 77.92 38.43 77.8 38.27C77.79 38.27 77.64 38.22 77.41 38.22C77.27 38.22 77.09 38.24 76.89 38.31C75.93 38.62 75.08 39.74 74.49 41.45C74.4 41.63 74.35 41.82 74.32 42.01V42.01ZM81.52 49.07C83.11 48.74 84.9 48.09 85.84 47.05C86.29 46.55 86.48 46.03 86.44 45.4C86.4 44.69 86.19 44.3 85.82 44.25C85.77 44.24 85.71 44.24 85.66 44.24C84.64 44.24 82.87 45.52 81.87 48.15C81.77 48.4 81.66 48.71 81.52 49.07V49.07ZM46.48 50.55L46.32 50.01C46.3 49.93 46.28 49.86 46.27 49.78C46.27 49.77 45.95 47.64 44.43 46.47C44.0885 46.21 43.6692 46.0726 43.24 46.08C43.15 46.08 43.06 46.09 42.97 46.1C42.48 46.17 42.06 46.4 41.79 46.76C41.51 47.13 41.48 47.45 41.68 47.87C42.22 49.02 44.25 50.34 46.48 50.55ZM64.53 27.96C63.45 27.96 61.83 28.3 60.24 29.94C58.15 32.09 57.68 35.29 58.98 38.5C59.21 39.07 59.5 39.64 59.84 40.19C59.39 40.39 58.9 40.54 58.38 40.66C58.43 37.42 57.12 35.35 55.86 34.11C54.58 32.85 53.05 32.18 51.45 32.18C51.08 32.18 50.71 32.22 50.35 32.29C47.98 32.77 46.46 34.55 45.82 36.06C45.08 37.82 44.93 39.68 45.32 41.38C44.65 41.17 43.95 41.07 43.24 41.07C42.93 41.07 42.62 41.09 42.32 41.13C41.4333 41.2424 40.5779 41.5302 39.8036 41.9766C39.0293 42.423 38.3516 43.019 37.81 43.73C36.41 45.58 36.17 47.85 37.15 49.96C38.48 52.83 42.08 55.09 45.86 55.5L56.81 92.57C57.0274 93.2931 57.4712 93.9272 58.0761 94.3791C58.681 94.8309 59.415 95.0766 60.17 95.08C60.5 95.08 60.84 95.03 61.16 94.94C62.06 94.68 62.8 94.08 63.24 93.26C63.69 92.44 63.79 91.49 63.52 90.6L52.63 53.72C53.37 53.13 54.01 52.4 54.51 51.58C55.27 50.32 55.93 49.1 56.47 47.94C56.88 47.92 57.31 47.89 57.74 47.85C60.6 47.57 63.09 46.69 65.16 45.21C66.7 46.06 68.37 46.63 70.12 46.91C70.51 47.79 71.01 48.65 71.64 49.48C72.58 50.73 73.76 51.84 75.01 52.68C72.75 59.6 68.41 73.89 66.79 86.31L66.78 86.35V86.4L66.29 92.25C66.2135 93.1739 66.5063 94.0904 67.1042 94.7989C67.7021 95.5074 68.5564 95.9501 69.48 96.03C69.6 96.04 69.69 96.04 69.78 96.04C71.58 96.04 73.11 94.63 73.27 92.84L73.75 87.1C75.37 74.68 80.01 59.85 81.92 54.08C84.09 53.71 87.45 52.76 89.57 50.38C90.9 48.89 91.55 47.06 91.43 45.1C91.21 41.33 88.68 39.62 86.58 39.29C86.29 39.25 85.99 39.22 85.69 39.22C84.84 39.22 83.92 39.41 82.99 39.81C83.15 37.85 82.5 36.02 81.53 34.93C80.55 33.84 79.04 33.21 77.38 33.21C76.95 33.21 76.51 33.25 76.08 33.34C74.45 33.67 71.48 34.93 69.79 39.65C69.7682 39.6388 69.7444 39.632 69.72 39.63C70.02 38.99 70.22 38.41 70.37 37.96C71 35.95 70.63 32.94 69.53 31.09C68.91 30.06 67.52 28.28 65.12 28C64.92 27.97 64.72 27.96 64.53 27.96V27.96Z" fill="#FFFF8D"/>
<path opacity="0.2" d="M64 7C82.2 7 97 21.8 97 40C97 47.31 94.34 54.64 89.3 61.19C84.14 67.9 81.55 74.77 82.19 80.03C83.03 86.86 80.34 88.61 79.44 89H48.56C47.66 88.61 44.97 86.87 45.81 80.03C46.45 74.77 43.86 67.9 38.7 61.19C33.66 54.64 31 47.31 31 40C31 21.8 45.8 7 64 7ZM64 4C44.12 4 28 20.12 28 40C28 48.76 31.37 56.58 36.32 63.02C40.87 68.94 43.38 75.16 42.83 79.67C41.5 90.56 48.08 92 48.08 92H79.92C79.92 92 86.5 90.56 85.17 79.67C84.62 75.16 87.13 68.94 91.68 63.02C96.63 56.58 100 48.76 100 40C100 20.12 83.88 4 64 4Z" fill="#424242"/>
<defs>
<radialGradient id="paint0_radial" cx="0" cy="0" r="1" gradientUnits="userSpaceOnUse" gradientTransform="translate(64.1284 111.75) rotate(90) scale(13.396 23.7498)">
<stop stop-color="#1E88E5"/>
<stop offset="0.987" stop-color="#0D47A1"/>
</radialGradient>
<linearGradient id="paint1_linear" x1="64" y1="87.25" x2="64" y2="113.36" gradientUnits="userSpaceOnUse">
<stop stop-color="#90CAF9"/>
<stop offset="0.198" stop-color="#88C6F9"/>
<stop offset="0.508" stop-color="#72BCF7"/>
<stop offset="0.89" stop-color="#4DAAF6"/>
<stop offset="0.996" stop-color="#42A5F5"/>
</linearGradient>
<radialGradient id="paint2_radial" cx="0" cy="0" r="1" gradientUnits="userSpaceOnUse" gradientTransform="translate(64.375 5.125) scale(91.129)">
<stop stop-color="#FFF59D"/>
<stop offset="0.148" stop-color="#FFF599"/>
<stop offset="0.311" stop-color="#FFF38B"/>
<stop offset="0.477" stop-color="#FFF176"/>
<stop offset="0.779" stop-color="#FFED51"/>
<stop offset="0.996" stop-color="#FFEB3B"/>
</radialGradient>
</defs>
</svg>
