<svg width="100" height="100" viewBox="0 0 100 100" fill="none" xmlns="http://www.w3.org/2000/svg">
<g clip-path="url(#clip0)">
<path d="M50 100C77.6142 100 100 77.6142 100 50C100 22.3858 77.6142 0 50 0C22.3858 0 0 22.3858 0 50C0 77.6142 22.3858 100 50 100Z" fill="#F0C419"/>
<path fill-rule="evenodd" clip-rule="evenodd" d="M7.619 21.663L49.999 50L21.689 7.59399L7.619 21.663ZM92.394 21.682L78.329 7.60699L50 50L0.005 40.039L0 59.94L50 50L7.606 78.319L21.671 92.394L50 50.001L40.042 100.011L59.937 100.015L50 50.001L78.31 92.407L92.381 78.337L50 50L92.394 21.682ZM100 40.061L50 50L99.996 59.962L100 40.061ZM40.063 -0.0140076L50 49.999L59.958 -0.0100076L40.063 -0.0140076Z" fill="#FCF062"/>
<path fill-rule="evenodd" clip-rule="evenodd" d="M60 93H40C40 85.425 36.513 75.435 32.01 71.676C28.8693 69.0325 26.3455 65.7332 24.6162 62.01C22.8869 58.2869 21.9939 54.2302 22 50.125C22 34.592 34.536 22 50 22C65.464 22 78 34.592 78 50.125C78 58.792 73.844 66.255 67.96 71.701C63.191 76.47 60 85.466 60 93Z" fill="#FCF062" stroke="#F29C1F" stroke-width="4" stroke-miterlimit="10"/>
<path fill-rule="evenodd" clip-rule="evenodd" d="M53 95C52.7348 95 52.4804 94.8946 52.2929 94.7071C52.1054 94.5196 52 94.2652 52 94V61H48V94C48 94.2652 47.8946 94.5196 47.7071 94.7071C47.5196 94.8946 47.2652 95 47 95H45C44.7348 95 44.4804 94.8946 44.2929 94.7071C44.1054 94.5196 44 94.2652 44 94V61H41.5C37.916 61 35 58.084 35 54.5C35 50.916 37.916 48 41.5 48C43.0846 47.992 44.6168 48.5666 45.8053 49.6146C46.9938 50.6626 47.7557 52.1109 47.946 53.684C47.9818 53.7855 48.0001 53.8924 48 54V57H52V54C52 53.885 52.02 53.774 52.056 53.671C52.2492 52.1006 53.0121 50.6557 54.1999 49.6104C55.3877 48.5651 56.9178 47.9921 58.5 48C62.084 48 65 50.916 65 54.5C65 58.084 62.084 61 58.5 61H56V94C56 94.2652 55.8946 94.5196 55.7071 94.7071C55.5196 94.8946 55.2652 95 55 95H53ZM58.5 57C59.879 57 61 55.879 61 54.5C61 53.121 59.879 51.999 58.5 51.999C57.9015 52.0035 57.3245 52.2223 56.8734 52.6156C56.4223 53.0089 56.127 53.5507 56.041 54.143L56 54.316V57H58.5ZM41.5 51.999C40.122 51.999 39 53.121 39 54.5C39 55.879 40.122 57 41.5 57H44V54.308L43.96 54.143C43.8738 53.5507 43.5782 53.0088 43.127 52.6155C42.6757 52.2222 42.0986 52.0035 41.5 51.999Z" fill="#F29C1F"/>
<path fill-rule="evenodd" clip-rule="evenodd" d="M38 91H62V100H38V91ZM44 64H48V61H44V64ZM52 61V64H56V61H52Z" fill="#E57E25"/>
</g>
<defs>
<clipPath id="clip0">
<rect width="100" height="100" fill="white"/>
</clipPath>
</defs>
</svg>
