<svg id="Layer_1" enable-background="new 0 0 511.939 511.939" height="512" viewBox="0 0 511.939 511.939" width="512" xmlns="http://www.w3.org/2000/svg"><g><g><g><g><g><ellipse cx="255.969" cy="260.447" fill="#ffc103" rx="137.236" ry="137.087"/><path d="m256.838 123.362c-7.107-.045-14.091.451-20.914 1.448 66.693 9.706 117.717 67.268 117.278 136.504-.435 68.61-51.254 125.129-117.188 134.769 6.236.908 12.606 1.407 19.086 1.448 75.792.479 137.622-60.507 138.102-136.217.48-75.709-60.572-137.472-136.364-137.952z" fill="#fab403"/></g></g><g><g><path d="m322.435 504.439h-132.931l15.523-30.119c4.441-8.616 13.327-14.032 23.027-14.032h55.831c9.7 0 18.586 5.415 23.027 14.032z" fill="#ff8fb4"/></g><path d="m306.912 474.32c-4.441-8.617-13.327-14.032-23.027-14.032h-40c9.7 0 18.586 5.415 23.027 14.032l15.523 30.119h40z" fill="#fa7aa5"/></g></g></g><g><path d="m63.958 144.181c4.142 0 7.5-3.358 7.5-7.5v-60.91h60.911c9.931-.344 9.923-14.659 0-15h-68.411c-4.142 0-7.5 3.358-7.5 7.5v68.411c0 4.141 3.358 7.499 7.5 7.499z"/><path d="m447.981 60.771h-68.411c-9.931.344-9.923 14.659 0 15h60.911v60.911c.344 9.931 14.659 9.923 15 0v-68.411c0-4.143-3.358-7.5-7.5-7.5z"/><path d="m447.981 376.712c-4.142 0-7.5 3.358-7.5 7.5v60.911h-60.911c-9.931.344-9.923 14.659 0 15h68.411c4.142 0 7.5-3.358 7.5-7.5v-68.411c0-4.142-3.358-7.5-7.5-7.5z"/><path d="m132.369 445.123h-60.911v-60.911c-.344-9.931-14.659-9.923-15 0v68.411c0 4.142 3.358 7.5 7.5 7.5h68.411c9.931-.345 9.923-14.66 0-15z"/><path d="m373.777 387.125c1.904 0 3.811-.721 5.272-2.166 2.946-2.912 2.974-7.661.062-10.606l-16.29-16.48c21.739-23.769 35.665-54.799 37.641-89.012l23.126.146c4.137.028 7.522-3.31 7.547-7.453.026-4.142-3.311-7.521-7.453-7.547l-23.126-.146c-1.482-33.323-14.234-64.638-36.46-89.531l16.448-16.223c2.949-2.909 2.982-7.657.073-10.606-2.908-2.948-7.657-2.982-10.606-.073l-16.458 16.234c-24.638-22.522-55.826-35.659-89.168-37.559l.146-23.092c.026-4.142-3.311-7.521-7.453-7.547-4.136-.028-7.522 3.31-7.547 7.453l-.146 23.107c-10.033.45-19.979 1.922-29.667 4.419-9.391 2.42-5.647 16.944 3.743 14.525 10.846-2.795 22.059-4.192 33.33-4.105 70.638.446 129.361 59.669 128.912 130.405-.451 71.178-58.56 128.772-129.719 128.767-130.338-1.682-179.014-172.26-66.973-240.598 8.304-5.009.557-17.851-7.747-12.845-7.654 4.617-14.849 9.938-21.502 15.858l-16.265-16.454c-2.912-2.945-7.661-2.974-10.606-.062-2.946 2.912-2.973 7.661-.062 10.606l16.256 16.446c-22.312 24.215-35.751 56.128-37.588 89.047l-23.146-.146c-4.19-.03-7.521 3.31-7.547 7.453-.026 4.142 3.311 7.521 7.453 7.547l23.126.146c1.482 33.323 14.234 64.638 36.46 89.531l-16.448 16.223c-2.949 2.909-2.982 7.657-.073 10.606 3.525 2.953 7.061 2.978 10.606.073l16.458-16.234c24.638 22.522 55.826 35.659 89.168 37.559l-.146 23.093c-.026 4.142 3.311 7.521 7.453 7.547 4.136.028 7.522-3.31 7.547-7.453l.146-23.1c34.275-1.54 65.513-15.058 89.582-36.476l16.305 16.496c1.468 1.484 3.401 2.227 5.336 2.227z"/><path d="m338.807 496.939h-11.8l-13.428-26.055c-5.752-11.162-17.13-18.096-29.694-18.096h-55.831c-12.563 0-23.941 6.934-29.694 18.096l-13.428 26.055h-11.8c-9.911.335-9.941 14.654 0 15h80.454c9.697 0 9.697-15 0-15h-51.779l9.886-19.183c3.169-6.148 9.438-9.968 16.361-9.968h55.831c6.923 0 13.192 3.819 16.361 9.968l9.886 19.183h-15.043c-9.697 0-9.697 15 0 15h43.718c4.142 0 7.5-3.358 7.5-7.5s-3.358-7.5-7.5-7.5z"/><path d="m221.244 56.94c-2.93 2.928-2.932 7.677-.004 10.607s7.677 2.932 10.607.004c13.301-13.29 34.944-13.29 48.245 0 1.464 1.463 5.544 4.054 10.607-.004 3.232-2.591 2.926-7.679-.004-10.607-19.148-19.131-50.303-19.131-69.451 0z"/><path d="m204.554 36.237c28.351-28.328 74.326-28.173 102.831 0 4.251 4.202 9.142 1.461 10.607-.004 2.928-2.93 2.926-7.679-.004-10.607-34.197-34.168-89.839-34.168-124.036 0-2.93 2.928-2.932 7.677-.004 10.607 2.927 2.93 7.676 2.932 10.606.004z"/></g></g></svg>